<?xml version="1.0" encoding="UTF-8"?>
<!DOCTYPE svg PUBLIC "-//W3C//DTD SVG 1.1//EN" "http://www.w3.org/Graphics/SVG/1.1/DTD/svg11.dtd">
<!-- Creator: CorelDRAW 2021 (64-Bit) -->
<svg xmlns="http://www.w3.org/2000/svg" xml:space="preserve" width="548.895mm" height="95mm" version="1.1" style="shape-rendering:geometricPrecision; text-rendering:geometricPrecision; image-rendering:optimizeQuality; fill-rule:evenodd; clip-rule:evenodd"
viewBox="0 0 94109.71 16288.05"
 xmlns:xlink="http://www.w3.org/1999/xlink"
 xmlns:xodm="http://www.corel.com/coreldraw/odm/2003">
 <defs>
  <style type="text/css">
   <![CDATA[
    .fil0 {fill:#FF6F70}
    .fil1 {fill:#FFFF01}
    .fil2 {fill:white}
    .fil3 {fill:white;fill-rule:nonzero}
   ]]>
  </style>
 </defs>
 <g id="Capa_x0020_1">
  <metadata id="CorelCorpID_0Corel-Layer"/>
  <rect class="fil0" width="94109.71" height="16288.05"/>
  <g id="_1804054439808">
   <path class="fil1" d="M3107.49 1092.77l12841.89 0c245.18,0 445.78,200.6 445.78,445.78l0 1009.09c0,245.18 -200.6,445.78 -445.78,445.78l-12841.89 0c-245.18,0 -445.78,-200.6 -445.78,-445.78l0 -1009.09c0,-245.18 200.6,-445.78 445.78,-445.78z"/>
   <path class="fil1" d="M11619.26 12900.68c-214.75,24.5 -411.21,214.71 -526.72,338.24 -769.7,793.52 -1719.54,1352.89 -2818.86,1896.13 -310.69,153.57 -512.68,-3.99 -467.14,-277.27 118.42,-237.39 229.75,-515.2 483.64,-1201.05 141.84,-383.09 24.17,-719.57 -318.73,-756.06l-4863.95 0c-245.18,0 -445.78,-200.6 -445.78,-445.78l0 -1009.09c0,-245.18 200.6,-445.78 445.78,-445.78l12841.89 0c245.18,0 445.78,200.6 445.78,445.78l0 1009.09c0,245.18 -200.6,445.78 -445.78,445.78l-4330.12 0z"/>
   <path class="fil2" d="M16438.83 7369.95c0,288.81 -71.19,559.26 -221.65,804.73 -156.52,255.31 -381.89,440.65 -647.37,571.33 -310.72,152.95 -658.86,206.91 -1001.8,206.91 -520.93,0 -1032.34,-114.34 -1455.74,-434.72 -408.81,-309.32 -603.57,-743.32 -635.77,-1254.61l-6.57 -104.36 1635.32 0 7.17 90.25c9.16,115.03 39.47,241.71 127.22,322.19 77.55,71.15 168.93,101.28 273.14,101.28 75.01,0 157,-13.54 214.61,-66.2 53.17,-48.59 68.1,-117.57 68.1,-187.55 0,-120.05 -53.08,-202.66 -153.59,-264.5 -177.3,-109.1 -419.87,-194.24 -615.95,-261.89 -262.7,-90.66 -527.89,-194.48 -775.41,-322.13 -224.93,-115.99 -406.98,-287.54 -552.7,-495.05 -175.09,-249.38 -235.34,-550.62 -235.34,-852.04 0,-309.44 74.5,-601.94 252.58,-855.59 173.61,-247.27 407.73,-423.58 683.55,-540.37 304.91,-129.07 633.13,-180.01 962.3,-180.01 499.44,0 1004.65,104.04 1402.97,426.11 376.89,304.72 553.09,724.12 584.96,1206.64l6.91 104.66 -1645.95 0 -10.27 -86.4c-11.73,-98.67 -40.29,-214.49 -113,-286.36 -63.73,-63.01 -144.9,-84.66 -232.51,-84.66 -64.62,0 -133.58,12.14 -182.51,58.19 -48.11,45.26 -58.79,118.23 -58.79,181.48 0,113.79 55.57,189.39 149.68,246.64 174.76,106.28 408.23,190.21 600.21,259.03 264.69,94.87 530.29,203.89 778.95,336.43 225.22,120.02 409.45,292.6 558.01,500.87 178.71,250.51 239.25,555.61 239.25,859.7z"/>
   <path class="fil2" d="M9697.08 7235.84l0 1667.83 -1548.62 0 0 -5178.61 2119.4 0c509.99,0 1033.26,111.1 1412.05,481.3 353.16,345.17 494.03,792.71 494.03,1284.63 0,314.86 -66.42,617.23 -218.81,892.55 -153,276.5 -378.91,481.61 -655.67,626.73 -317.82,166.65 -676.85,225.56 -1031.6,225.56l-570.78 0zm0 -2195.63l0 908.62 419.41 0c318.03,0 495.09,-121.97 495.09,-457.83 0,-334.01 -180.88,-450.78 -495.09,-450.78l-419.41 0z"/>
   <polygon class="fil2" points="4334.03,6355.31 4334.03,8903.67 2785.45,8903.67 2785.45,3732.09 4290.05,3732.09 5929.62,6312.15 5929.62,3732.09 7478.2,3732.09 7478.2,8903.67 5973.96,8903.67 "/>
   <path class="fil3" d="M3178.72 10132.83l-161.13 0 -170.56 -258.4 0 258.4 -161.13 0 0 -513.88 161.13 0 170.56 262.75 0 -262.75 161.13 0 0 513.88zm291.78 -513.88l0 289.6c0,23.71 5.2,42.47 15.6,56.25 10.41,13.78 27.23,20.68 50.44,20.68 23.23,0 40.41,-6.89 51.54,-20.68 11.13,-13.78 16.7,-32.54 16.7,-56.25l0 -289.6 160.39 0 0 289.6c0,48.88 -10.17,90.61 -30.48,125.21 -20.32,34.58 -48.14,60.59 -83.46,78.01 -35.32,17.42 -74.75,26.13 -118.3,26.13 -43.55,0 -82.14,-8.71 -115.78,-26.13 -33.62,-17.42 -59.87,-43.31 -78.75,-77.65 -18.86,-34.36 -28.31,-76.21 -28.31,-125.57l0 -289.6 160.41 0zm587.19 127.75l0 63.87 159.67 0 0 121.22 -159.67 0 0 72.58 181.45 0 0 128.47 -342.58 0 0 -513.88 342.58 0 0 127.75 -181.45 0zm701.14 234.43c0,29.52 -7.63,56.13 -22.87,79.85 -15.24,23.71 -37.38,42.47 -66.4,56.25 -29.03,13.78 -63.63,20.68 -103.8,20.68 -61.45,0 -112.13,-14.38 -152.06,-43.17 -39.91,-28.8 -61.57,-71.02 -64.95,-126.67l171.28 0c2.42,29.52 15.48,44.29 39.19,44.29 8.23,0 14.88,-2.18 19.96,-6.53 5.09,-4.35 7.63,-10.65 7.63,-18.88 0,-12.09 -6.17,-21.65 -18.52,-28.67 -12.33,-7.01 -32.28,-15.12 -59.87,-24.31 -32.42,-10.65 -59.39,-21.53 -80.93,-32.66 -21.53,-11.13 -40.29,-27.59 -56.25,-49.36 -15.96,-21.77 -23.95,-50.08 -23.95,-84.92 0,-33.38 8.59,-61.81 25.77,-85.28 17.18,-23.47 40.63,-41.25 70.4,-53.34 29.76,-12.1 63.27,-18.16 100.52,-18.16 61.45,0 110.33,14.28 146.61,42.83 36.3,28.55 56.13,69.68 59.53,123.38l-173.48 0c-2.42,-27.09 -13.54,-40.63 -33.38,-40.63 -6.77,0 -12.34,2.06 -16.7,6.17 -4.35,4.11 -6.53,10.27 -6.53,18.5 0,11.13 6.17,20.2 18.52,27.23 12.33,7.01 31.56,15.12 57.69,24.31 32.9,11.61 60.13,23.09 81.66,34.48 21.53,11.37 40.39,28.07 56.61,50.08 16.2,22.01 24.31,50.2 24.31,84.54zm521.87 -362.18l0 127.75 -136.46 0 0 386.13 -161.13 0 0 -386.13 -135 0 0 -127.75 432.59 0zm363.64 513.88l-97.25 -184.36 0 184.36 -161.13 0 0 -513.88 239.52 0c41.61,0 77.17,7.39 106.68,22.13 29.52,14.76 51.66,34.84 66.42,60.25 14.76,25.41 22.13,54.08 22.13,86 0,34.36 -9.55,64.84 -28.67,91.45 -19.12,26.63 -46.57,45.73 -82.38,57.35l111.77 196.69 -177.09 0zm-97.25 -291.78l63.87 0c15.48,0 27.09,-3.5 34.84,-10.53 7.73,-7.01 11.61,-18.02 11.61,-33.02 0,-13.54 -3.99,-24.19 -11.97,-31.92 -7.99,-7.75 -19.48,-11.62 -34.48,-11.62l-63.87 0 0 87.1zm716.38 214.11l-171.3 0 -25.39 77.67 -169.12 0 187.98 -513.88 185.8 0 187.26 513.88 -169.84 0 -25.39 -77.67zm-39.19 -121.2l-46.45 -142.99 -46.46 142.99 92.91 0zm678.66 35.56l0 163.31 -161.13 0 0 -513.88 225 0c62.91,0 111.17,15.98 144.79,47.9 33.64,31.94 50.44,74.77 50.44,128.47 0,32.42 -7.49,61.83 -22.49,88.2 -15,26.37 -37.14,47.29 -66.4,62.77 -29.28,15.5 -64.72,23.23 -106.34,23.23l-63.87 0zm45.73 -127.01c33.38,0 50.08,-15.72 50.08,-47.18 0,-31.44 -16.7,-47.17 -50.08,-47.17l-45.73 0 0 94.35 45.73 0zm655.41 212.65l-171.3 0 -25.39 77.67 -169.12 0 187.98 -513.88 185.8 0 187.26 513.88 -169.84 0 -25.39 -77.67zm-39.19 -121.2l-46.45 -142.99 -46.46 142.99 92.91 0zm729.45 47.17c0,29.52 -7.63,56.13 -22.87,79.85 -15.24,23.71 -37.38,42.47 -66.4,56.25 -29.03,13.78 -63.63,20.68 -103.8,20.68 -61.45,0 -112.13,-14.38 -152.06,-43.17 -39.91,-28.8 -61.57,-71.02 -64.95,-126.67l171.28 0c2.42,29.52 15.48,44.29 39.19,44.29 8.23,0 14.88,-2.18 19.96,-6.53 5.09,-4.35 7.63,-10.65 7.63,-18.88 0,-12.09 -6.17,-21.65 -18.52,-28.67 -12.33,-7.01 -32.28,-15.12 -59.87,-24.31 -32.42,-10.65 -59.39,-21.53 -80.93,-32.66 -21.53,-11.13 -40.29,-27.59 -56.25,-49.36 -15.96,-21.77 -23.95,-50.08 -23.95,-84.92 0,-33.38 8.59,-61.81 25.77,-85.28 17.18,-23.47 40.63,-41.25 70.4,-53.34 29.76,-12.1 63.27,-18.16 100.52,-18.16 61.45,0 110.33,14.28 146.61,42.83 36.3,28.55 56.13,69.68 59.53,123.38l-173.48 0c-2.42,-27.09 -13.54,-40.63 -33.38,-40.63 -6.77,0 -12.34,2.06 -16.7,6.17 -4.35,4.11 -6.53,10.27 -6.53,18.5 0,11.13 6.17,20.2 18.52,27.23 12.33,7.01 31.56,15.12 57.69,24.31 32.9,11.61 60.13,23.09 81.66,34.48 21.53,11.37 40.39,28.07 56.61,50.08 16.2,22.01 24.31,50.2 24.31,84.54zm279.45 -362.18l0 513.88 -161.13 0 0 -513.88 161.13 0zm384.69 -8.71c48.38,0 92.65,11.25 132.81,33.76 40.17,22.49 71.98,53.82 95.45,93.99 23.47,40.15 35.2,85.4 35.2,135.72 0,50.32 -11.73,95.57 -35.2,135.72 -23.47,40.17 -55.4,71.62 -95.81,94.37 -40.39,22.73 -84.54,34.1 -132.45,34.1 -48.4,0 -92.79,-11.37 -133.2,-34.1 -40.39,-22.75 -72.46,-54.2 -96.17,-94.37 -23.71,-40.15 -35.56,-85.4 -35.56,-135.72 0,-50.32 11.85,-95.57 35.56,-135.72 23.71,-40.17 55.77,-71.5 96.17,-93.99 40.41,-22.51 84.8,-33.76 133.2,-33.76zm0 148.8c-32.42,0 -57.35,10.27 -74.77,30.84 -17.42,20.56 -26.13,48.5 -26.13,83.82 0,34.84 8.71,62.55 26.13,83.1 17.42,20.57 42.35,30.84 74.77,30.84 31.92,0 56.61,-10.27 74.03,-30.84 17.4,-20.56 26.11,-48.26 26.11,-83.1 0,-35.32 -8.71,-63.27 -26.11,-83.82 -17.42,-20.57 -42.11,-30.84 -74.03,-30.84zm93.61 -235.9l-187.98 68.24 0 -107.43 187.98 -79.83 0 119.02zm782.44 609.69l-161.13 0 -170.56 -258.4 0 258.4 -161.13 0 0 -513.88 161.13 0 170.56 262.75 0 -262.75 161.13 0 0 513.88zm480.51 -386.13l0 63.87 159.67 0 0 121.22 -159.67 0 0 72.58 181.45 0 0 128.47 -342.58 0 0 -513.88 342.58 0 0 127.75 -181.45 0zm701.14 234.43c0,29.52 -7.63,56.13 -22.87,79.85 -15.24,23.71 -37.38,42.47 -66.4,56.25 -29.03,13.78 -63.63,20.68 -103.8,20.68 -61.45,0 -112.13,-14.38 -152.06,-43.17 -39.91,-28.8 -61.57,-71.02 -64.95,-126.67l171.28 0c2.42,29.52 15.48,44.29 39.19,44.29 8.23,0 14.88,-2.18 19.96,-6.53 5.09,-4.35 7.63,-10.65 7.63,-18.88 0,-12.09 -6.17,-21.65 -18.52,-28.67 -12.33,-7.01 -32.28,-15.12 -59.87,-24.31 -32.42,-10.65 -59.39,-21.53 -80.93,-32.66 -21.53,-11.13 -40.29,-27.59 -56.25,-49.36 -15.96,-21.77 -23.95,-50.08 -23.95,-84.92 0,-33.38 8.59,-61.81 25.77,-85.28 17.18,-23.47 40.63,-41.25 70.4,-53.34 29.76,-12.1 63.27,-18.16 100.52,-18.16 61.45,0 110.33,14.28 146.61,42.83 36.3,28.55 56.13,69.68 59.53,123.38l-173.48 0c-2.42,-27.09 -13.54,-40.63 -33.38,-40.63 -6.77,0 -12.34,2.06 -16.7,6.17 -4.35,4.11 -6.53,10.27 -6.53,18.5 0,11.13 6.17,20.2 18.52,27.23 12.33,7.01 31.56,15.12 57.69,24.31 32.9,11.61 60.13,23.09 81.66,34.48 21.53,11.37 40.39,28.07 56.61,50.08 16.2,22.01 24.31,50.2 24.31,84.54zm464.55 -234.43l0 63.87 159.67 0 0 121.22 -159.67 0 0 72.58 181.45 0 0 128.47 -342.58 0 0 -513.88 342.58 0 0 127.75 -181.45 0zm465.26 264.19l155.32 0 0 121.94 -316.45 0 0 -513.88 161.13 0 0 391.94zm849.94 -29.76c0,29.52 -7.63,56.13 -22.87,79.85 -15.24,23.71 -37.38,42.47 -66.4,56.25 -29.03,13.78 -63.63,20.68 -103.8,20.68 -61.45,0 -112.13,-14.38 -152.06,-43.17 -39.91,-28.8 -61.57,-71.02 -64.95,-126.67l171.28 0c2.42,29.52 15.48,44.29 39.19,44.29 8.23,0 14.88,-2.18 19.96,-6.53 5.09,-4.35 7.63,-10.65 7.63,-18.88 0,-12.09 -6.17,-21.65 -18.52,-28.67 -12.33,-7.01 -32.28,-15.12 -59.87,-24.31 -32.42,-10.65 -59.39,-21.53 -80.93,-32.66 -21.53,-11.13 -40.29,-27.59 -56.25,-49.36 -15.96,-21.77 -23.95,-50.08 -23.95,-84.92 0,-33.38 8.59,-61.81 25.77,-85.28 17.18,-23.47 40.63,-41.25 70.4,-53.34 29.76,-12.1 63.27,-18.16 100.52,-18.16 61.45,0 110.33,14.28 146.61,42.83 36.3,28.55 56.13,69.68 59.53,123.38l-173.48 0c-2.42,-27.09 -13.54,-40.63 -33.38,-40.63 -6.77,0 -12.34,2.06 -16.7,6.17 -4.35,4.11 -6.53,10.27 -6.53,18.5 0,11.13 6.17,20.2 18.52,27.23 12.33,7.01 31.56,15.12 57.69,24.31 32.9,11.61 60.13,23.09 81.66,34.48 21.53,11.37 40.39,28.07 56.61,50.08 16.2,22.01 24.31,50.2 24.31,84.54zm279.45 -234.43l0 63.87 159.67 0 0 121.22 -159.67 0 0 72.58 181.45 0 0 128.47 -342.58 0 0 -513.88 342.58 0 0 127.75 -181.45 0zm562.5 386.13l-97.25 -184.36 0 184.36 -161.13 0 0 -513.88 239.52 0c41.61,0 77.17,7.39 106.68,22.13 29.52,14.76 51.66,34.84 66.42,60.25 14.76,25.41 22.13,54.08 22.13,86 0,34.36 -9.55,64.84 -28.67,91.45 -19.12,26.63 -46.57,45.73 -82.38,57.35l111.77 196.69 -177.09 0zm-97.25 -291.78l63.87 0c15.48,0 27.09,-3.5 34.84,-10.53 7.73,-7.01 11.61,-18.02 11.61,-33.02 0,-13.54 -3.99,-24.19 -11.97,-31.92 -7.99,-7.75 -19.48,-11.62 -34.48,-11.62l-63.87 0 0 87.1zm521.87 -222.1l105.96 353.47 105.24 -353.47 171.3 0 -172.74 513.88 -208.32 0 -172.74 -513.88 171.3 0zm641.63 0l0 513.88 -161.13 0 0 -513.88 161.13 0zm373.8 -5.08c44.51,0 84.3,8.35 119.38,25.03 35.08,16.7 63.64,40.29 85.66,70.78 22.01,30.48 36.64,66.04 43.91,106.7l-169.84 0c-7.75,-16.94 -18.76,-30.12 -33.02,-39.55 -14.28,-9.45 -30.6,-14.16 -49,-14.16 -27.09,0 -48.5,10.17 -64.23,30.48 -15.72,20.32 -23.59,47.66 -23.59,82.02 0,34.36 7.87,61.69 23.59,82.01 15.72,20.33 37.14,30.48 64.23,30.48 18.4,0 34.72,-4.71 49,-14.14 14.26,-9.43 25.27,-22.61 33.02,-39.55l169.84 0c-7.27,40.63 -21.89,76.21 -43.91,106.7 -22.01,30.48 -50.58,54.08 -85.66,70.76 -35.08,16.7 -74.87,25.05 -119.38,25.05 -51.78,0 -96.79,-11.01 -135,-33.02 -38.23,-22.03 -67.62,-52.88 -88.2,-92.55 -20.56,-39.67 -30.84,-84.92 -30.84,-135.72 0,-50.82 10.29,-96.05 30.84,-135.72 20.57,-39.69 49.96,-70.54 88.2,-92.55 38.22,-22.01 83.22,-33.02 135,-33.02zm529.86 5.08l0 513.88 -161.13 0 0 -513.88 161.13 0zm384.69 -8.71c48.38,0 92.65,11.25 132.81,33.76 40.17,22.49 71.98,53.82 95.45,93.99 23.47,40.15 35.2,85.4 35.2,135.72 0,50.32 -11.73,95.57 -35.2,135.72 -23.47,40.17 -55.4,71.62 -95.81,94.37 -40.39,22.73 -84.54,34.1 -132.45,34.1 -48.4,0 -92.79,-11.37 -133.2,-34.1 -40.39,-22.75 -72.46,-54.2 -96.17,-94.37 -23.71,-40.15 -35.56,-85.4 -35.56,-135.72 0,-50.32 11.85,-95.57 35.56,-135.72 23.71,-40.17 55.77,-71.5 96.17,-93.99 40.41,-22.51 84.8,-33.76 133.2,-33.76zm0 148.8c-32.42,0 -57.35,10.27 -74.77,30.84 -17.42,20.56 -26.13,48.5 -26.13,83.82 0,34.84 8.71,62.55 26.13,83.1 17.42,20.57 42.35,30.84 74.77,30.84 31.92,0 56.61,-10.27 74.03,-30.84 17.4,-20.56 26.11,-48.26 26.11,-83.1 0,-35.32 -8.71,-63.27 -26.11,-83.82 -17.42,-20.57 -42.11,-30.84 -74.03,-30.84z"/>
  </g>
  <path class="fil3" d="M23496.49 6558.75l957.31 0 0 3292.83 -861.09 0 -1217.08 -1665.24 0 1665.24 -952.51 0 0 -3292.83 856.29 0 1217.08 1660.52 0 -1660.52zm4060.13 893.77l0 2399.06 -639.79 0 -110.64 -249.31c-96.22,109.76 -212.48,192.87 -348.79,249.31 -136.29,56.44 -287.84,84.68 -454.59,84.68 -304.67,0 -547.6,-94.09 -728.81,-282.25 -181.19,-188.17 -271.79,-448.45 -271.79,-780.88l0 -1420.61 904.38 0 0 1288.9c0,144.26 29.68,252.45 89,324.58 59.32,72.13 143.52,108.2 252.57,108.2 118.65,0 215.65,-45.47 291.04,-136.43 75.35,-90.94 113.04,-222.65 113.04,-395.13l0 -1190.12 904.38 0zm3232.75 1176.01c0,78.39 -4.83,148.96 -14.44,211.68l-1895.4 0c28.89,144.26 88.2,252.45 178,324.58 89.79,72.13 205.25,108.19 346.37,108.19 198.83,0 343.15,-70.55 432.95,-211.68l899.58 0c-89.81,266.56 -254.16,479.02 -493.1,637.39 -238.92,158.37 -523.53,237.57 -853.87,237.57 -275.8,0 -520.34,-55.67 -733.61,-167 -213.27,-111.34 -378.45,-265 -495.5,-461 -117.05,-196.01 -175.59,-416.31 -175.59,-660.92 0,-241.47 58.53,-459.43 175.59,-653.85 117.05,-194.45 282.23,-347.33 495.5,-458.65 213.27,-111.32 456.2,-167 728.81,-167 275.8,0 520.34,54.88 733.61,164.65 213.25,109.76 378.41,260.28 495.48,451.59 117.07,191.29 175.6,406.12 175.6,644.46zm-1399.9 -597.41c-121.87,0 -226.1,32.92 -312.7,98.77 -86.58,65.86 -147.52,159.93 -182.79,282.25l986.16 0c-32.06,-125.44 -90.6,-220.3 -175.59,-284.6 -84.99,-64.29 -190.02,-96.43 -315.1,-96.43zm2905.62 1905.14c-394.48,0 -691.13,-74.5 -889.98,-223.45 -198.83,-148.96 -304.67,-353.59 -317.48,-613.87l904.38 0c19.24,156.79 120.27,235.2 303.08,235.2 76.95,0 135.5,-14.9 175.59,-44.68 40.07,-29.8 60.11,-68.22 60.11,-115.25 0,-59.6 -33.66,-104.28 -101,-134.08 -67.35,-29.78 -189.23,-65.07 -365.61,-105.84 -189.22,-40.77 -347.18,-87.03 -473.86,-138.76 -126.65,-51.74 -233.3,-128.59 -319.9,-230.5 -86.58,-101.93 -129.88,-237.57 -129.88,-406.91 0,-147.38 41.68,-280.67 125.08,-399.85 83.39,-119.16 208.45,-214.02 375.23,-284.58 166.77,-70.57 370.41,-105.86 610.94,-105.86 343.16,0 611.74,73.71 805.78,221.09 194.03,147.4 297.45,340.27 310.3,578.6l-870.72 0c-6.41,-59.58 -30.47,-107.42 -72.16,-143.47 -41.68,-36.06 -99.43,-54.09 -173.18,-54.09 -73.76,0 -129.88,14.11 -168.37,42.33 -38.47,28.22 -57.73,64.29 -57.73,108.19 0,56.46 33.67,98 101.02,124.66 67.35,26.66 186.03,57.23 355.99,91.73 275.82,53.32 502.72,135.64 680.7,246.96 178,111.32 266.99,295.57 266.99,552.73 0,235.2 -96.22,427.28 -288.62,576.24 -192.44,148.96 -474.67,223.45 -846.67,223.45zm3357.79 -823.22l0 738.53 -620.56 0c-317.5,0 -558.83,-81.54 -724,-244.61 -165.18,-163.07 -247.75,-401.41 -247.75,-715.01l0 -733.84 -447.39 0 0 -705.6 485.86 0 134.69 -602.13 731.21 0 0 602.13 678.3 0 0 705.6 -678.3 0 0 677.39c0,90.94 24.86,159.93 74.56,206.98 49.72,47.03 122.67,70.55 218.89,70.55l394.46 0zm2203.26 -1660.52l0 827.91 -375.23 0c-157.14,0 -272.61,38.41 -346.37,115.25 -73.76,76.83 -110.64,193.64 -110.64,350.45l0 1105.44 -904.38 0 0 -2399.06 634.99 0 125.08 277.53c176.39,-185.02 410.49,-277.53 702.34,-277.53l274.21 0zm1558.63 -84.68c388.05,0 687.12,92.52 897.18,277.55 210.05,185.02 315.1,450.01 315.1,794.98l0 1411.21 -634.99 0 -115.46 -254.02c-99.43,112.9 -221.29,197.58 -365.62,254.02 -144.29,56.44 -304.66,84.68 -481.05,84.68 -288.64,0 -514.74,-63.51 -678.3,-190.52 -163.55,-127.01 -245.33,-303.42 -245.33,-529.21 0,-235.2 88.18,-417.88 264.57,-548.02 176.39,-130.15 426.54,-195.22 750.47,-195.22l601.32 0 0 -117.6c0,-103.49 -27.24,-183.47 -81.78,-239.91 -54.5,-56.44 -133.08,-84.66 -235.71,-84.66 -93.01,0 -168.37,22.73 -226.11,68.2 -57.71,45.47 -93,105.84 -105.82,181.11l-899.56 0c38.46,-282.25 168.35,-504.91 389.64,-667.98 221.29,-163.07 505.12,-244.61 851.47,-244.61zm-110.64 1938.07c134.69,0 238.13,-32.15 310.28,-96.44 72.16,-64.28 108.24,-154.45 108.24,-270.47l0 -37.63 -394.46 0c-195.65,0 -293.46,68.99 -293.46,206.98 0,59.58 23.27,107.4 69.76,143.47 46.5,36.06 113.04,54.09 199.64,54.09zm4382.46 -2747.16c253.36,0 477.86,51.74 673.49,155.23 195.65,103.49 347.18,246.17 454.61,428.07 107.43,181.89 161.17,387.3 161.17,616.22 0,232.08 -53.73,439.06 -161.17,620.93 -107.43,181.89 -258.17,324.58 -452.21,428.07 -194.03,103.49 -417.71,155.23 -671.07,155.23l-461.83 0 0 889.07 -966.93 0 0 -3292.83 1423.94 0zm-158.75 1594.67c147.52,0 259.77,-34.5 336.75,-103.49 76.97,-68.99 115.46,-166.21 115.46,-291.66 0,-122.3 -38.49,-217.95 -115.46,-286.94 -76.98,-68.99 -189.23,-103.49 -336.75,-103.49l-298.26 0 0 785.58 298.26 0zm3045.11 -785.58c388.05,0 687.12,92.52 897.18,277.55 210.05,185.02 315.1,450.01 315.1,794.98l0 1411.21 -634.99 0 -115.46 -254.02c-99.43,112.9 -221.29,197.58 -365.62,254.02 -144.29,56.44 -304.66,84.68 -481.05,84.68 -288.64,0 -514.74,-63.51 -678.3,-190.52 -163.55,-127.01 -245.35,-303.42 -245.35,-529.21 0,-235.2 88.2,-417.88 264.59,-548.02 176.39,-130.15 426.54,-195.22 750.47,-195.22l601.32 0 0 -117.6c0,-103.49 -27.26,-183.47 -81.78,-239.91 -54.5,-56.44 -133.08,-84.66 -235.73,-84.66 -93,0 -168.35,22.73 -226.1,68.2 -57.71,45.47 -93,105.84 -105.82,181.11l-899.58 0c38.47,-282.25 168.37,-504.91 389.66,-667.98 221.29,-163.07 505.1,-244.61 851.47,-244.61zm-110.64 1938.07c134.69,0 238.13,-32.15 310.28,-96.44 72.16,-64.28 108.24,-154.45 108.24,-270.47l0 -37.63 -394.46 0c-195.65,0 -293.46,68.99 -293.46,206.98 0,59.58 23.27,107.4 69.76,143.47 46.5,36.06 113.04,54.09 199.64,54.09zm2920.04 630.35c-394.46,0 -691.11,-74.5 -889.96,-223.45 -198.83,-148.96 -304.67,-353.59 -317.5,-613.87l904.4 0c19.24,156.79 120.26,235.2 303.06,235.2 76.97,0 135.5,-14.9 175.59,-44.68 40.09,-29.8 60.13,-68.22 60.13,-115.25 0,-59.6 -33.67,-104.28 -101.02,-134.08 -67.35,-29.78 -189.22,-65.07 -365.61,-105.84 -189.2,-40.77 -347.16,-87.03 -473.85,-138.76 -126.67,-51.74 -233.3,-128.59 -319.9,-230.5 -86.58,-101.93 -129.88,-237.57 -129.88,-406.91 0,-147.38 41.68,-280.67 125.06,-399.85 83.39,-119.16 208.47,-214.02 375.23,-284.58 166.79,-70.57 370.42,-105.86 610.94,-105.86 343.18,0 611.76,73.71 805.78,221.09 194.03,147.4 297.47,340.27 310.3,578.6l-870.72 0c-6.41,-59.58 -30.47,-107.42 -72.16,-143.47 -41.68,-36.06 -99.41,-54.09 -173.18,-54.09 -73.76,0 -129.86,14.11 -168.35,42.33 -38.49,28.22 -57.75,64.29 -57.75,108.19 0,56.46 33.69,98 101.04,124.66 67.35,26.66 186.01,57.23 355.99,91.73 275.8,53.32 502.7,135.64 680.69,246.96 178,111.32 266.99,295.57 266.99,552.73 0,235.2 -96.2,427.28 -288.62,576.24 -192.42,148.96 -474.65,223.45 -846.67,223.45zm1549.03 -3532.74l904.38 0 0 724.42 -904.38 0 0 -724.42zm0 1049l904.38 0 0 2399.06 -904.38 0 0 -2399.06zm2761.27 2483.74c-279.01,0 -526.77,-56.46 -743.23,-169.36 -216.49,-112.88 -384.84,-266.56 -505.12,-460.99 -120.26,-194.43 -180.4,-412.4 -180.4,-653.87 0,-241.47 60.15,-459.43 180.4,-653.85 120.27,-194.43 288.62,-348.1 505.12,-461 216.46,-112.88 464.23,-169.34 743.23,-169.34 279.02,0 526.77,56.46 743.23,169.34 216.48,112.9 384.84,266.58 505.12,461 120.26,194.43 180.4,412.38 180.4,653.85 0,241.47 -60.15,459.44 -180.4,653.87 -120.27,194.43 -288.64,348.1 -505.12,460.99 -216.46,112.9 -464.21,169.36 -743.23,169.36zm0 -762.06c153.93,0 279.83,-48.61 377.63,-145.84 97.81,-97.21 146.71,-222.65 146.71,-376.32 0,-153.66 -48.9,-279.09 -146.71,-376.32 -97.8,-97.21 -223.69,-145.82 -377.63,-145.82 -153.95,0 -279.81,48.61 -377.64,145.82 -97.8,97.23 -146.71,222.67 -146.71,376.32 0,153.67 48.92,279.11 146.71,376.32 97.83,97.23 223.69,145.84 377.64,145.84zm-101.02 -2822.43l938.05 0 -562.85 813.8 -673.47 0 298.26 -813.8zm3521.36 1016.07c307.9,0 554.03,94.09 738.43,282.25 184.4,188.17 276.61,446.89 276.61,776.17l0 1425.32 -904.38 0 0 -1288.9c0,-144.26 -30.48,-252.46 -91.4,-324.6 -60.95,-72.11 -147.54,-108.19 -259.79,-108.19 -125.06,0 -225.29,44.7 -300.66,134.06 -75.37,89.38 -113.04,221.88 -113.04,397.5l0 1190.12 -904.4 0 0 -2399.06 635.01 0 115.44 249.31c93.01,-109.76 209.26,-192.87 348.77,-249.31 139.51,-56.44 292.64,-84.68 459.41,-84.68zm5291.66 1260.7c0,78.39 -4.82,148.96 -14.42,211.68l-1895.4 0c28.87,144.26 88.2,252.45 178,324.58 89.79,72.13 205.25,108.19 346.35,108.19 198.83,0 343.16,-70.55 432.97,-211.68l899.58 0c-89.81,266.56 -254.16,479.02 -493.1,637.39 -238.92,158.37 -523.53,237.57 -853.87,237.57 -275.82,0 -520.34,-55.67 -733.61,-167 -213.29,-111.34 -378.45,-265 -495.5,-461 -117.05,-196.01 -175.59,-416.31 -175.59,-660.92 0,-241.47 58.53,-459.43 175.59,-653.85 117.05,-194.45 282.21,-347.33 495.5,-458.65 213.27,-111.32 456.19,-167 728.81,-167 275.8,0 520.34,54.88 733.6,164.65 213.27,109.76 378.43,260.28 495.48,451.59 117.09,191.29 175.6,406.12 175.6,644.46zm-1399.88 -597.41c-121.89,0 -226.1,32.92 -312.7,98.77 -86.58,65.86 -147.52,159.93 -182.79,282.25l986.16 0c-32.08,-125.44 -90.6,-220.3 -175.59,-284.6 -84.99,-64.29 -190.04,-96.43 -315.1,-96.43zm2905.62 1905.14c-394.48,0 -691.13,-74.5 -889.98,-223.45 -198.83,-148.96 -304.67,-353.59 -317.48,-613.87l904.38 0c19.24,156.79 120.26,235.2 303.08,235.2 76.95,0 135.5,-14.9 175.57,-44.68 40.09,-29.8 60.13,-68.22 60.13,-115.25 0,-59.6 -33.66,-104.28 -101,-134.08 -67.35,-29.78 -189.23,-65.07 -365.62,-105.84 -189.2,-40.77 -347.16,-87.03 -473.85,-138.76 -126.67,-51.74 -233.3,-128.59 -319.9,-230.5 -86.58,-101.93 -129.88,-237.57 -129.88,-406.91 0,-147.38 41.68,-280.67 125.08,-399.85 83.38,-119.16 208.45,-214.02 375.21,-284.58 166.79,-70.57 370.42,-105.86 610.96,-105.86 343.16,0 611.74,73.71 805.78,221.09 194.02,147.4 297.45,340.27 310.3,578.6l-870.72 0c-6.43,-59.58 -30.48,-107.42 -72.18,-143.47 -41.66,-36.06 -99.41,-54.09 -173.17,-54.09 -73.78,0 -129.88,14.11 -168.37,42.33 -38.49,28.22 -57.73,64.29 -57.73,108.19 0,56.46 33.67,98 101.02,124.66 67.35,26.66 186.01,57.23 355.99,91.73 275.8,53.32 502.7,135.64 680.69,246.96 178,111.32 266.99,295.57 266.99,552.73 0,235.2 -96.2,427.28 -288.62,576.24 -192.42,148.96 -474.65,223.45 -846.65,223.45zm5306.1 -1307.72c0,78.39 -4.82,148.96 -14.44,211.68l-1895.4 0c28.89,144.26 88.2,252.45 178,324.58 89.79,72.13 205.26,108.19 346.37,108.19 198.83,0 343.15,-70.55 432.95,-211.68l899.58 0c-89.81,266.56 -254.16,479.02 -493.1,637.39 -238.9,158.37 -523.53,237.57 -853.87,237.57 -275.8,0 -520.34,-55.67 -733.61,-167 -213.27,-111.34 -378.45,-265 -495.5,-461 -117.05,-196.01 -175.59,-416.31 -175.59,-660.92 0,-241.47 58.53,-459.43 175.59,-653.85 117.05,-194.45 282.23,-347.33 495.5,-458.65 213.27,-111.32 456.2,-167 728.81,-167 275.8,0 520.34,54.88 733.61,164.65 213.25,109.76 378.43,260.28 495.48,451.59 117.07,191.29 175.6,406.12 175.6,644.46zm-1399.9 -597.41c-121.87,0 -226.1,32.92 -312.7,98.77 -86.58,65.86 -147.5,159.93 -182.79,282.25l986.16 0c-32.06,-125.44 -90.6,-220.3 -175.59,-284.6 -84.99,-64.29 -190.02,-96.43 -315.1,-96.43zm1832.85 -1627.6l904.4 0 0 3448.06 -904.4 0 0 -3448.06zm3819.62 3532.74c-445.78,0 -788.92,-103.49 -1029.47,-310.47 -240.53,-206.98 -360.79,-484.53 -360.79,-832.63l995.78 0c0,106.63 33.69,188.17 101.04,244.61 67.35,56.46 166.76,84.68 298.24,84.68 112.25,0 197.24,-21.96 254.97,-65.86 57.73,-43.91 86.58,-103.49 86.58,-178.76 0,-87.82 -43.29,-154.45 -129.89,-199.93 -86.57,-45.47 -237.31,-94.87 -452.19,-148.17 -211.66,-56.44 -393.66,-119.18 -545.99,-188.17 -152.34,-68.99 -283.03,-172.46 -392.08,-310.45 -109.03,-137.99 -163.55,-318.32 -163.55,-540.97 0,-304.19 112.25,-549.59 336.75,-736.19 224.48,-186.59 546.78,-279.9 966.93,-279.9 410.51,0 725.61,96.44 945.29,289.31 219.67,192.87 329.52,455.5 329.52,787.91l-971.75 0c0,-87.8 -28.05,-156.79 -84.18,-206.96 -56.12,-50.18 -137.09,-75.27 -242.93,-75.27 -89.81,0 -159.55,19.6 -209.26,58.79 -49.7,39.21 -74.56,88.59 -74.56,148.19 0,78.39 41.68,137.99 125.08,178.74 83.38,40.77 226.1,87.82 428.14,141.12 224.5,56.46 413.72,118.39 567.66,185.82 153.91,67.42 286.21,170.9 396.86,310.47 110.64,139.55 165.97,323.79 165.97,552.71 0,216.39 -51.32,406.12 -153.93,569.19 -102.63,163.07 -254.99,290.87 -457.03,383.39 -202.04,92.52 -445.76,138.77 -731.2,138.77zm8731.25 -2483.74l957.31 0 -1000.6 2399.06 -918.83 0 -1024.66 -2399.06 976.56 0 509.92 1340.64 500.3 -1340.64zm1221.9 -1049l904.38 0 0 724.42 -904.38 0 0 -724.42zm0 1049l904.38 0 0 2399.06 -904.38 0 0 -2399.06zm2737.22 2483.74c-275.8,0 -520.34,-54.88 -733.61,-164.65 -213.27,-109.76 -378.45,-261.86 -495.5,-456.29 -117.05,-194.45 -175.59,-413.96 -175.59,-658.57 0,-247.75 58.53,-468.84 175.59,-663.27 117.05,-194.45 283.03,-347.33 497.9,-458.65 214.88,-111.32 460.21,-167 736.01,-167 240.53,0 458.62,46.26 654.25,138.77 195.63,92.52 355.99,221.09 481.06,385.74 125.06,164.65 202.04,350.45 230.9,557.43l-889.96 0c-32.06,-94.08 -90.6,-170.92 -175.59,-230.5 -84.97,-59.58 -183.59,-89.38 -295.84,-89.38 -147.52,0 -268.6,48.61 -363.21,145.82 -94.61,97.23 -141.89,224.23 -141.89,381.04 0,153.66 47.29,278.32 141.89,373.97 94.61,95.64 217.28,143.47 368.01,143.47 112.27,0 208.47,-28.22 288.64,-84.68 80.19,-56.44 141.12,-133.27 182.82,-230.5l885.13 0c-32.06,203.84 -110.64,388.08 -235.7,552.73 -125.09,164.65 -286.24,293.22 -483.48,385.74 -197.24,92.52 -414.52,138.77 -651.83,138.77zm1803.96 -3532.74l904.4 0 0 724.42 -904.4 0 0 -724.42zm0 1049l904.4 0 0 2399.06 -904.4 0 0 -2399.06zm2761.29 2483.74c-279.02,0 -526.77,-56.46 -743.23,-169.36 -216.49,-112.88 -384.86,-266.56 -505.12,-460.99 -120.26,-194.43 -180.4,-412.4 -180.4,-653.87 0,-241.47 60.15,-459.43 180.4,-653.85 120.26,-194.43 288.62,-348.1 505.12,-461 216.46,-112.88 464.21,-169.34 743.23,-169.34 279.01,0 526.76,56.46 743.23,169.34 216.48,112.9 384.84,266.58 505.12,461 120.26,194.43 180.4,412.38 180.4,653.85 0,241.47 -60.15,459.44 -180.4,653.87 -120.27,194.43 -288.64,348.1 -505.12,460.99 -216.48,112.9 -464.23,169.36 -743.23,169.36zm0 -762.06c153.93,0 279.81,-48.61 377.63,-145.84 97.81,-97.21 146.71,-222.65 146.71,-376.32 0,-153.66 -48.9,-279.09 -146.71,-376.32 -97.81,-97.21 -223.69,-145.82 -377.63,-145.82 -153.95,0 -279.83,48.61 -377.64,145.82 -97.8,97.23 -146.73,222.67 -146.73,376.32 0,153.67 48.93,279.11 146.73,376.32 97.81,97.23 223.69,145.84 377.64,145.84zm-12772.13 -545.67c0,78.39 -4.82,148.96 -14.44,211.68l-1895.38 0c28.87,144.26 88.2,252.45 178,324.58 89.79,72.13 205.25,108.19 346.35,108.19 198.83,0 343.16,-70.55 432.97,-211.68l899.58 0c-89.81,266.56 -254.18,479.02 -493.1,637.39 -238.92,158.37 -523.55,237.57 -853.87,237.57 -275.82,0 -520.36,-55.67 -733.61,-167 -213.29,-111.34 -378.45,-265 -495.5,-461 -117.07,-196.01 -175.59,-416.31 -175.59,-660.92 0,-241.47 58.52,-459.43 175.59,-653.85 117.05,-194.45 282.21,-347.33 495.5,-458.65 213.25,-111.32 456.19,-167 728.8,-167 275.82,0 520.36,54.88 733.61,164.65 213.27,109.76 378.43,260.28 495.48,451.59 117.09,191.29 175.6,406.12 175.6,644.46zm-1399.88 -597.41c-121.89,0 -226.11,32.92 -312.7,98.77 -86.58,65.86 -147.52,159.93 -182.8,282.25l986.16 0c-32.06,-125.44 -90.6,-220.3 -175.57,-284.6 -84.99,-64.29 -190.04,-96.43 -315.1,-96.43zm3569.47 -578.6l0 827.91 -375.24 0c-157.14,0 -272.59,38.41 -346.35,115.25 -73.76,76.83 -110.64,193.64 -110.64,350.45l0 1105.44 -904.4 0 0 -2399.06 635.01 0 125.06 277.53c176.39,-185.02 410.51,-277.53 702.36,-277.53l274.21 0z"/>
 </g>
</svg>
