<svg version="1.2" baseProfile="tiny-ps" xmlns="http://www.w3.org/2000/svg" viewBox="0 0 500 512" width="250" height="256">
	<title>npsNUEVOLOGO-svg</title>
	<style>
		tspan { white-space:pre }
		.shp0 { fill: #ffff01 } 
		.shp1 { fill: #000000 } 
		.txt2 { font-size: 13px;fill: #000000;font-weight: 400;font-family: "LiberationSans", "Liberation Sans" } 
	</style>
	<g id="Capa_x0020_1">
		<g id="_1736203568784">
			<path id="Layer" class="shp0" d="M15.59 0L482.81 0C491.43 0 498.4 6.97 498.4 15.59L498.4 53.4C498.4 62.02 491.43 68.99 482.81 68.99L15.59 68.99C6.97 68.99 0 62.02 0 53.4L0 15.59C0 6.97 6.97 0 15.59 0Z" />
			<path id="Layer" fill-rule="evenodd" class="shp0" d="M325.08 428.6C317.28 429.49 310.15 436.39 305.96 440.87C278.03 469.68 243.56 489.98 203.66 509.7C192.39 515.27 185.06 509.55 186.71 499.63C191.01 491.02 195.05 480.93 204.26 456.04C209.41 442.13 205.14 429.92 192.69 428.6L16.18 428.6C7.28 428.6 0 421.31 0 412.41L0 375.79C0 366.89 7.28 359.61 16.18 359.61L482.22 359.61C491.12 359.61 498.4 366.89 498.4 375.79L498.4 412.41C498.4 421.31 491.12 428.6 482.22 428.6L325.07 428.6L325.08 428.6Z" />
			<g id="Layer">
				<path id="Layer" fill-rule="evenodd" class="shp1" d="M499.98 227.84C499.98 238.33 497.4 248.14 491.94 257.05C486.26 266.32 478.08 273.05 468.45 277.79C457.17 283.34 444.54 285.3 432.09 285.3C413.18 285.3 394.63 281.15 379.26 269.52C364.42 258.3 357.35 242.54 356.19 223.99L355.95 220.2L415.3 220.2L415.56 223.47C415.89 227.65 416.99 232.25 420.17 235.17C422.99 237.75 426.3 238.84 430.09 238.84C432.81 238.84 435.78 238.35 437.87 236.44C439.8 234.68 440.35 232.17 440.35 229.63C440.35 225.28 438.42 222.28 434.77 220.03C428.34 216.07 419.54 212.98 412.42 210.53C402.88 207.24 393.26 203.47 384.28 198.83C376.11 194.62 369.51 188.4 364.22 180.87C357.87 171.81 355.68 160.88 355.68 149.94C355.68 138.71 358.38 128.09 364.85 118.88C371.15 109.91 379.64 103.51 389.65 99.27C400.72 94.59 412.63 92.74 424.57 92.74C442.7 92.74 461.03 96.51 475.49 108.2C489.17 119.26 495.56 134.49 496.72 152L496.97 155.8L437.24 155.8L436.86 152.66C436.44 149.08 435.4 144.88 432.76 142.27C430.45 139.98 427.5 139.2 424.32 139.2C421.98 139.2 419.48 139.64 417.7 141.31C415.96 142.95 415.57 145.6 415.57 147.9C415.57 152.03 417.58 154.77 421 156.85C427.34 160.71 435.81 163.75 442.78 166.25C452.39 169.69 462.03 173.65 471.05 178.46C479.22 182.82 485.91 189.08 491.3 196.64C497.79 205.74 499.98 216.81 499.98 227.85L499.98 227.84Z" />
				<path id="Layer" fill-rule="evenodd" class="shp1" d="M255.32 222.98L255.32 283.51L199.12 283.51L199.12 95.54L276.03 95.54C294.54 95.54 313.53 99.58 327.28 113.01C340.1 125.54 345.21 141.79 345.21 159.64C345.21 171.07 342.8 182.05 337.27 192.04C331.72 202.08 323.52 209.52 313.47 214.79C301.94 220.84 288.91 222.98 276.03 222.98L255.32 222.98ZM255.32 176.26L270.54 176.26C282.08 176.26 288.51 171.83 288.51 159.64C288.51 147.52 281.94 143.28 270.54 143.28L255.32 143.28L255.32 176.26Z" />
				<path id="Layer" class="shp1" d="M60.69 191.02L60.69 283.51L4.49 283.51L4.49 95.8L59.09 95.8L118.6 189.45L118.6 95.8L174.79 95.8L174.79 283.51L120.2 283.51L60.69 191.02Z" />
			</g>
			<text id="NUESTRA PASIÓN ES EL SERVICIO" style="transform: matrix(0.127,0,0,0.127,-0.44,328.13)" >
				<tspan x="0" y="0" class="txt2">NUESTRA PASIÓN ES EL SERVICIO</tspan>
			</text>
		</g>
	</g>
</svg>